<?xml version="1.0" encoding="utf-8"?>
<!-- Generator: Adobe Illustrator 23.0.1, SVG Export Plug-In . SVG Version: 6.00 Build 0)  -->
<svg version="1.1" xmlns="http://www.w3.org/2000/svg" xmlns:xlink="http://www.w3.org/1999/xlink" x="0px" y="0px"
	 viewBox="0 0 750 500" style="enable-background:new 0 0 750 500;" xml:space="preserve">
<style type="text/css">
	.st0{fill:#E9E3FF;}
	.st1{fill:#0B6A00;}
	.st2{display:none;}
	.st3{display:inline;}
	.st4{fill:#F0BF6C;}
	.st5{fill:#402C49;}
	.st6{fill:#454F6B;}
	.st7{display:inline;fill:#F0BF9C;}
	.st8{fill:#FFFFFF;}
	.st9{fill:#A59B95;}
	.st10{fill:#F0BF9C;}
	.st11{fill:#8C404C;}
	.st12{fill:#BD6C67;}
	.st13{fill:#797C99;}
	.st14{fill:#CC6164;}
	.st15{fill:#D1F4F5;}
	.st16{fill:#3C3247;}
	.st17{fill:#E7FAF9;}
	.st18{fill:#EBA588;}
	.st19{fill:#E78882;}
	.st20{fill:#6A3649;}
	.st21{fill:#8E5A61;}
	.st22{fill:#6C6FC3;}
	.st23{fill:#EBA25D;}
	.st24{fill:#C67438;}
	.st25{fill:#DD8C4A;}
	.st26{fill:#472948;}
	.st27{fill:#422C4F;}
	.st28{fill:#5FA5CC;}
	.st29{fill:#A64F5A;}
	.st30{fill:#B56361;}
	.st31{fill:#B0ECDE;}
	.st32{fill:#495375;}
	.st33{fill:#99A3B0;}
	.st34{display:inline;fill:#454F6B;}
	.st35{fill:#A34262;}
	.st36{display:inline;fill:#FFFFFF;}
	.st37{fill:#F6DCC5;}
</style>
<g id="BACKGROUND">
	<path class="st0" d="M565.34,452.68H221.73c-40.23-35.74-58.62-119.39-45.59-185.49c13.03-66.1,58.52-115.36,105.6-114.35
		c32.11,0.68,63.42,22.14,95.31,16.63c26.53-4.59,49.75-27.23,71.8-49.29c22.05-22.05,45.18-44.81,71.69-49.71
		c26.51-4.9,57.19,14.46,64.18,52.14c6.77,36.45-10.1,75.64-3.38,112.11c3.21,17.44,11.44,31.82,17.18,47.82
		C617.48,335.32,600.92,427.35,565.34,452.68z"/>
	<path class="st1" d="M582.75,455.68H207.84c-0.66,0-1.2-0.88-1.2-1.96l0,0c0-1.08,0.54-1.96,1.2-1.96h374.91
		c0.66,0,1.2,0.88,1.2,1.96l0,0C583.95,454.8,583.41,455.68,582.75,455.68z"/>
</g>
<g id="OBJECTS">
	<g class="st2">
		<g class="st3">
			<g>
				<path class="st4" d="M252,85.75c-4.87,2.84-10.29,4.73-15.92,5.46l-0.27-2.1c10.35-1.34,20-6.82,26.46-15.02l1.67,1.31
					C260.65,79.58,256.57,83.08,252,85.75z"/>
			</g>
			<g>
				<polygon class="st5" points="270.87,92.52 322.22,80.84 279.76,49.69 228.41,61.37 				"/>
				<path class="st6" d="M274.62,74.48c11.81,2.45,22.06,1.17,22.89-2.86l3.03-14.6l-42.76-8.87l-3.03,14.6
					C253.91,66.78,262.81,72.03,274.62,74.48z"/>
				<path class="st5" d="M257.78,48.14c0.84-4.03,11.09-5.31,22.89-2.86c11.81,2.45,20.7,7.7,19.86,11.74
					c-0.84,4.03-11.09,5.31-22.89,2.86C265.84,57.43,256.94,52.17,257.78,48.14z"/>
			</g>
			<path class="st4" d="M218.67,88.13c3.74,0.67,7.62,0.59,11.34-0.23c1.77-0.39,3.58-0.96,5.37-0.67c1.79,0.29,3.57,1.79,3.39,3.6
				c-0.14,1.51-1.51,2.58-2.83,3.33c-4.85,2.78-10.64,3.89-16.17,3.08C217.91,94.95,217.74,90.93,218.67,88.13z"/>
		</g>
		<path class="st7" d="M256.12,101.21l2.44-6.88c-4.75-8,0.75-15.38-0.63-19.5c5.5-0.63,6.59,6.73,4.98,11.86l7.95,5.83l14.5-3.3
			c-5.19,10.73-14.63,11.98-14.63,11.98l-1.93,8.38L256.12,101.21z"/>
		<g class="st3">
			<path class="st6" d="M154.86,186.74l-15.29,187.22h93.5l-11.25-196.83c37.75-22.52,50-67.42,50-67.42
				c-3.75-12-19.75-13.25-19.75-13.25c-19.25,48-44.15,62.98-44.15,62.98l-22.98,21.48L154.86,186.74z"/>
			<path class="st5" d="M221.81,177.13c16.28-9.71,27.81-23.58,35.67-36.22C245.18,152.57,233.27,164.79,221.81,177.13z"/>
			<path class="st5" d="M177.82,205.37c7.89,0.53,15.87-2.22,22.03-7.18c6.16-4.96,10.5-12.02,12.57-19.65
				c2.05-7.55,1.92-15.44,0.97-23.26c-3.4,2.91-5.47,4.16-5.47,4.16l-22.98,21.48l-30.07,5.82l-0.24,2.91
				c0.82,1.72,1.77,3.37,2.91,4.91C162.25,200.91,169.93,204.84,177.82,205.37z"/>
			<polygon class="st5" points="153.87,197.59 150.31,242.46 177.31,265.71 155.06,239.96 			"/>
			<path class="st5" d="M148.89,259.81l40.55,22.38c2.18,1.2,2.78,4.05,1.28,6.03l-5.76,7.58c-0.64,0.84-1.62,1.33-2.67,1.33l0,0
				c-1.17,0-2.25,0.61-2.86,1.6l-7.14,11.61c-1.18,1.91-3.67,2.53-5.6,1.37l-1.05-0.63c-1.96-1.17-2.59-3.71-1.4-5.66l7.68-12.63
				l-1.75-5.58c-1.87,2.06-5.63,4.03-8.49,5.34c-2.11,0.96-4.61,0.23-5.84-1.74l-8.37-13.32L148.89,259.81z"/>
		</g>
		<g class="st3">
			<g>
				<path class="st8" d="M201.39,246.58c-2.04-1.23-3.96-1.77-4.29-1.22l-33.75,56.15l7.38,4.44l33.75-56.15
					C204.82,249.25,203.43,247.8,201.39,246.58z"/>
				<path class="st9" d="M170.73,305.95c-0.33,0.55-2.26,0.01-4.29-1.22c-2.04-1.23-3.42-2.67-3.09-3.22s2.26-0.01,4.29,1.22
					C169.68,303.95,171.07,305.4,170.73,305.95z"/>
			</g>
			<path class="st10" d="M175.81,266.21l16.12,4.32c1.58,0.42,2.81,1.65,3.24,3.22l0.41,1.51c0.25,0.9,0.03,1.87-0.58,2.58
				l-9.84,11.41c-1.31,1.52-3.44,2.05-5.3,1.31l-0.29-0.12c-1.77-0.7-3.23-2.02-4.09-3.72l-5.33-10.53L175.81,266.21z"/>
			<path class="st6" d="M150.2,183.19l-18.59,51.73c-2.35,6.55-1.13,13.85,3.22,19.28l26.49,33.01c12.25-4.75,16-21.5,16-21.5
				l-27.01-23.25l4.55-55.72L150.2,183.19z"/>
		</g>
		<g class="st3">
			<g>
				<path class="st11" d="M173.23,427.35H157.9l-5.42,9.58c-1.56,2.76-3.99,4.92-6.92,6.16v0c-2.68,1.13-4.9,3.04-6.45,5.43h36.21
					L173.23,427.35z"/>
				<path class="st12" d="M139.11,448.51c-0.71,1.1-1.29,2.28-1.69,3.55l-0.19,0.61h38.5l-0.41-4.17H139.11z"/>
				<polygon class="st5" points="173.23,427.35 157.9,427.35 154.97,432.51 173.74,432.51 				"/>
			</g>
			<g>
				<polygon class="st6" points="178.73,427.35 154.9,427.35 154.9,373.96 184.23,373.96 				"/>
				<polygon class="st5" points="154.9,373.96 154.9,381.3 176.73,381.3 177.42,373.96 				"/>
				<polygon class="st5" points="184.23,373.96 178.43,373.96 177.74,381.3 183.41,381.3 				"/>
				<path class="st13" d="M173.24,422.8c-0.03,0.27,0.18,0.52,0.45,0.54c0.02,0,0.03,0,0.05,0c0.25,0,0.47-0.19,0.5-0.45l3.5-41.59
					h-1L173.24,422.8z"/>
				<polygon class="st6" points="177.42,373.96 176.73,381.3 177.74,381.3 178.43,373.96 				"/>
			</g>
		</g>
		<g class="st3">
			<g>
				<path class="st11" d="M194.13,427.35h15.33l5.42,9.58c1.56,2.76,3.99,4.92,6.92,6.16v0c2.68,1.13,4.9,3.04,6.45,5.43h-36.21
					L194.13,427.35z"/>
				<path class="st12" d="M228.25,448.51c0.71,1.1,1.29,2.28,1.69,3.55l0.19,0.61h-38.5l0.41-4.17H228.25z"/>
				<polygon class="st5" points="194.13,427.35 209.46,427.35 212.39,432.51 193.62,432.51 				"/>
			</g>
			<g>
				<polygon class="st6" points="187.89,427.35 211.72,427.35 219.39,373.96 190.06,373.96 				"/>
				<polygon class="st5" points="219.39,373.96 218.24,381.3 196.41,381.3 196.87,373.96 				"/>
				<polygon class="st5" points="190.06,373.96 195.86,373.96 195.4,381.3 189.73,381.3 				"/>
				<path class="st13" d="M194.09,422.8c-0.02,0.27-0.26,0.52-0.54,0.54c-0.02,0-0.03,0-0.05,0c-0.25,0-0.44-0.19-0.43-0.45
					l2.32-41.59h1L194.09,422.8z"/>
				<polygon class="st6" points="196.87,373.96 196.41,381.3 195.4,381.3 195.86,373.96 				"/>
			</g>
		</g>
		<g class="st3">
			<g>
				<path class="st4" d="M147.06,182.13l28.25-10.58l17.18-2.83l22.24-18.67C218.73,201.8,166.44,217.13,147.06,182.13z"/>
				<path class="st14" d="M211.86,152.46l-3.64,3.06c-0.87,29.76-32.78,53.35-54.19,24.01l-3.83,1.44
					C175.07,216.67,213.86,187.17,211.86,152.46z"/>
			</g>
			<g>
				<path class="st15" d="M184.74,173.34l-9.42-1.79c0.56,9.1,4.85,13.92,9.42,13.92c4.58,0,8.86-4.81,9.42-13.92L184.74,173.34z"/>
				<g>
					<polygon class="st10" points="192.49,168.71 184.93,173.34 177.38,168.71 177.38,161.84 192.49,161.84 					"/>
					<path class="st16" d="M183.45,168.06c2.93,0.62,6.06-0.69,8.08-2.91c0.35-0.39,0.66-0.81,0.96-1.24v-2.07h-15.12v1.58
						c0.14,0.21,0.26,0.42,0.4,0.63C179.18,165.96,181.13,167.57,183.45,168.06z"/>
				</g>
				<g>
					<polygon class="st17" points="177.38,168.71 175.31,171.55 181.23,179.02 184.93,173.34 					"/>
					<polygon class="st17" points="192.49,168.71 194.55,171.55 188.64,179.02 184.93,173.34 					"/>
					<g>
						<polygon class="st14" points="184.93,173.34 181.84,178.09 183.73,180.92 184.93,180.92 186.14,180.92 188.03,178.09 						
							"/>
						<path class="st14" d="M183.73,180.92l-1.58,4c0.84,0.35,1.71,0.54,2.59,0.54c1,0,1.98-0.24,2.92-0.7l-1.52-3.84H183.73z"/>
					</g>
				</g>
			</g>
		</g>
		<g class="st3">
			<g>
				<path class="st18" d="M169.68,145.51c0,3.32-2.69,6.01-6.01,6.01c-3.32,0-6.01-2.69-6.01-6.01s2.69-6.01,6.01-6.01
					C166.99,139.5,169.68,142.19,169.68,145.51z"/>
				<path class="st19" d="M167.07,145.51c0,1.87-1.52,3.39-3.39,3.39c-1.88,0-3.39-1.52-3.39-3.39c0-1.88,1.52-3.4,3.39-3.4
					C165.55,142.11,167.07,143.63,167.07,145.51z"/>
			</g>
			<g>
				<path class="st18" d="M199.8,145.51c0,3.32,2.69,6.01,6.01,6.01c3.32,0,6.01-2.69,6.01-6.01s-2.69-6.01-6.01-6.01
					C202.49,139.5,199.8,142.19,199.8,145.51z"/>
				<path class="st19" d="M202.41,145.51c0,1.87,1.52,3.39,3.39,3.39c1.87,0,3.39-1.52,3.39-3.39c0-1.88-1.52-3.4-3.39-3.4
					C203.93,142.11,202.41,143.63,202.41,145.51z"/>
			</g>
			<path class="st10" d="M184.74,114.83L184.74,114.83L184.74,114.83c-10.11,0-18.3,8.19-18.3,18.3v10.7
				c0,6.79,2.85,13.27,7.85,17.85l0.76,0.7c2.51,2.3,5.79,3.58,9.2,3.58h0.48h0.48c3.41,0,6.69-1.28,9.2-3.58l0.76-0.7
				c5-4.59,7.85-11.06,7.85-17.85v-10.7C203.04,123.02,194.84,114.83,184.74,114.83z"/>
			<path class="st20" d="M195.47,122.29c1.85-1.52,3.75,2.75,4.86,5.74c0.35,0.95,0.59,1.94,0.7,2.95l1.81,15.92l2.02-11.81
				c0.58-4.86-0.24-10.8-1.76-15.45c-0.45-1.39-1.02-2.78-2.04-3.83c-1.34-1.17-4.43-1.56-4.43-1.56c1-0.63,2-1.14,3-1.76
				c-2.68-2.34-6.6-3.62-10.14-3.2c1.17-1.37,2.72-2.41,4.42-2.99c-4.23-1.09-8.93-0.72-12.83,1.24c0.47-1.15,1.04-2.24,1.51-3.38
				c-4.91,1.44-8.72,5.54-10.2,10.43c-1.39-0.45-2.95,0.18-3.97,1.22c-1.02,1.04-1.59,2.44-2.04,3.83
				c-1.52,4.65-2.34,10.59-1.76,15.45l2.02,11.81l1.79-15.81c0.13-1.18,0.44-2.34,0.89-3.44c0.67-1.62,1.55-3.4,2.58-4.82
				c0.8-1.11,2.36-1.33,3.46-0.52c2.77,2.04,6,4,9.23,3.95C188.53,126.21,192.43,124.78,195.47,122.29z"/>
			<path class="st16" d="M178.22,139.5c0,0.92-0.74,1.66-1.66,1.66c-0.92,0-1.66-0.74-1.66-1.66c0-0.92,0.74-1.66,1.66-1.66
				C177.48,137.84,178.22,138.58,178.22,139.5z"/>
			<path class="st16" d="M191.26,139.5c0,0.92,0.74,1.66,1.66,1.66c0.92,0,1.66-0.74,1.66-1.66c0-0.92-0.74-1.66-1.66-1.66
				C192,137.84,191.26,138.58,191.26,139.5z"/>
			<g>
				<path class="st20" d="M175.81,132.25c-2,0.21-3.65,1.4-4.52,3.02c3.17-0.48,6.36-0.82,9.56-1
					C179.67,132.86,177.82,132.04,175.81,132.25z"/>
			</g>
			<g>
				<path class="st20" d="M193.67,132.25c2,0.21,3.65,1.4,4.52,3.02c-3.17-0.48-6.36-0.82-9.56-1
					C189.8,132.86,191.66,132.04,193.67,132.25z"/>
			</g>
			<g>
				<path class="st18" d="M179.87,141.72c-1.89-0.55-4.9-0.19-6.61,0.78C175.18,142.89,178.09,142.54,179.87,141.72z"/>
			</g>
			<g>
				<path class="st18" d="M189.61,141.72c1.89-0.55,4.9-0.19,6.61,0.78C194.3,142.89,191.39,142.54,189.61,141.72z"/>
			</g>
			<g>
				<path class="st21" d="M181.74,120.31c-0.65-1.72-0.66-3.71-0.08-5.56c0.58-1.85,1.71-3.49,3.13-4.72
					c1.41-1.24,3.04-2.1,4.55-2.67c-1.61,0.08-3.52,0.59-5.25,1.76c-1.73,1.14-3.22,3.01-3.89,5.18c-0.33,1.08-0.49,2.23-0.4,3.35
					c0.02,0.34,0.08,0.67,0.14,1c-0.27-0.5-0.53-1.01-0.75-1.54c-0.61-1.48-1.05-3.04-1.06-4.52c-0.02-1.48,0.41-2.89,1.19-3.92
					c-1.07,0.74-1.92,2.2-2.11,3.87c-0.2,1.68,0.19,3.45,0.85,5.05c0.67,1.62,1.69,3.07,2.85,4.21c0.6,0.59,1.23,1.09,1.87,1.5
					c0.67,0.52,1.4,0.9,2.1,1.1C183.55,123.47,182.37,122.05,181.74,120.31z"/>
				<path class="st21" d="M186.99,113.02c-1.03,0.7-1.96,1.73-2.53,2.95c-0.58,1.22-0.79,2.59-0.67,3.83
					c0.11,1.24,0.54,2.35,1.1,3.16c-0.27-0.94-0.44-2.03-0.4-3.18c0.04-1.14,0.31-2.33,0.81-3.41c0.51-1.08,1.26-2.04,2.12-2.8
					c0.85-0.76,1.81-1.32,2.71-1.71C189.16,111.94,188.03,112.31,186.99,113.02z"/>
			</g>
			<path class="st22" d="M187.84,144.33c-1.96-0.97-4.25-0.97-6.21,0c-3.44,1.7-9.22,4.14-14.67,4.52
				c1.04,4.89,3.58,9.39,7.33,12.83l0.76,0.7c2.51,2.3,5.79,3.58,9.2,3.58h0.48h0.48c3.41,0,6.69-1.28,9.2-3.58l0.76-0.7
				c3.75-3.44,6.29-7.93,7.33-12.83C197.06,148.47,191.28,146.03,187.84,144.33z"/>
		</g>
	</g>
	<g>
		<g>
			<polygon class="st1" points="363.91,392.3 263.22,392.3 279.57,202.61 347.56,202.61 			"/>
			<path class="st5" d="M271.81,291.63l13.58,16.83c5.67-0.83,11.17-7.33,11.17-7.33l6.72,8.79c1.32,1.72,3.9,1.77,5.28,0.09
				l8.57-10.42c0.92-1.12,0.61-2.8-0.65-3.51l-42.88-24.3L271.81,291.63z"/>
			<path class="st5" d="M313.57,269.13l-2.19,1.34c-1.2,0.73-1.59,2.28-0.89,3.5l5.25,9.15c0.65,1.14,1.86,1.84,3.18,1.84h4.4
				l3.23,16.25c4.35,1.92,8.52-1.58,8.52-1.58l-2.33-11.08l21.23-11.74l-1.78-20.68L313.57,269.13z"/>
			<path class="st5" d="M279.19,207.01c18.54,26.46,55.93,22.02,68.6-1.82l-0.22-2.58h-67.99L279.19,207.01z"/>
			<polygon class="st5" points="277.88,222.21 274.88,257.02 301.73,280.46 279.19,255.46 			"/>
			<polygon class="st5" points="348.85,217.48 351.64,249.94 327.9,256.13 347.79,247.46 			"/>
		</g>
		<g>
			<path class="st8" d="M314.46,229.13c-2.34,0.43-4.14,1.3-4.02,1.93l11.88,64.43l8.47-1.56l-11.88-64.43
				C318.79,228.86,316.8,228.69,314.46,229.13z"/>
			<path class="st9" d="M330.78,293.92c0.12,0.64-1.68,1.5-4.02,1.93c-2.34,0.43-4.33,0.27-4.45-0.37c-0.12-0.64,1.68-1.5,4.02-1.93
				C328.67,293.12,330.66,293.29,330.78,293.92z"/>
		</g>
		<g>
			<g>
				<path class="st10" d="M298.44,281.59l6.63,4.75l10.63,4.19c1.04,0.41,1.43,1.69,0.79,2.61l-7.01,10.12
					c-0.85,1.23-2.53,1.55-3.77,0.72l-1.69-1.12c-0.77-0.51-1.06-1.5-0.71-2.35l0.38-0.91l-0.07-0.04
					c-2.15-1.33-3.63-3.53-4.06-6.02l0,0l-4.63-3.06L298.44,281.59z"/>
				<path class="st18" d="M298.44,281.59l-3.5,8.88l4.63,3.06c0.05,0.3,0.12,0.59,0.2,0.88c2.06-2.6,3.46-5.73,4.01-9L298.44,281.59
					z"/>
			</g>
			<path class="st1" d="M279.57,202.61L279.57,202.61c-4.35,3.76-7.72,8.54-9.8,13.91l-14.36,37.08c-1.9,4.84-1.15,10.32,1.97,14.48
				c7.16,9.53,20.5,26.53,29.84,33.89c10.33-5.33,14.5-21.5,14.5-21.5l-26.85-23.44L279.57,202.61z"/>
		</g>
		<g>
			<g>
				<path class="st10" d="M329.73,258.38l-3.33,0.92l-9.9-4.88c-0.97-0.48-2.13-0.34-2.97,0.35l-4.82,3.97
					c-0.82,0.67-1.06,1.82-0.6,2.77l5.97,12.13c0.34,0.68,1.1,1.05,1.84,0.89l2.43-0.52l-0.45-2.45l1.92,0.05
					c2.09-0.03,4.1-0.82,5.66-2.22l0,0l5.75-1.08L329.73,258.38z"/>
				<path class="st18" d="M329.73,258.38l-3.33,0.92l-0.95-0.47c-0.6,3.48-0.5,7.07,0.29,10.51l5.5-1.04L329.73,258.38z"/>
			</g>
			<path class="st1" d="M347.56,202.61L347.56,202.61c3.73,2,6.59,5.31,8.01,9.3l14.68,41.13c2.28,6.39-0.74,13.46-6.92,16.23
				l-30.93,13.87c-4.5-9.5-4.5-27-4.5-27l23.75-6.19L347.56,202.61z"/>
		</g>
		<g>
			<polygon class="st1" points="309.18,114.86 259.82,150.94 312.15,182.55 361.52,146.48 			"/>
			<g>
				<path class="st23" d="M340.95,163.2l-1.96-3.21c-1.99-3.27-3.63-6.74-4.88-10.35l-1.15-3.34c-3.08-8.9-11.69-14.67-21.09-14.13
					l-2.74,0.16l-2.74,0.16c-9.4,0.54-17.29,7.26-19.33,16.45l-0.76,3.45c-0.83,3.74-2.06,7.37-3.66,10.84l-1.58,3.42
					c-4.36,9.44,1.41,20.44,11.66,22.22l19.87,3.45l19.34-5.7C341.88,183.68,346.36,172.08,340.95,163.2z"/>
				<path class="st24" d="M332.5,169.64l-1.4-2.53c-1.42-2.57-2.59-5.29-3.49-8.13l-0.83-2.62c-2.21-6.98-8.33-11.54-14.97-11.15
					l-1.94,0.11l-1.94,0.11c-6.64,0.38-12.19,5.61-13.59,12.8l-0.53,2.7c-0.57,2.92-1.42,5.76-2.54,8.48l-1.1,2.67
					c-3.04,7.37,1.09,16.02,8.34,17.45l14.06,2.79l13.65-4.38C333.25,185.68,336.36,176.62,332.5,169.64z"/>
				<g>
					<path class="st25" d="M289.06,184.2c-1.37-1.15-2.35-2.9-2.74-4.9c-0.41-1.99-0.15-4.16,0.45-6.27c0.6-2.12,1.52-4.19,2.32-6.2
						c0.81-2.01,1.46-4,1.68-5.76c-0.76,1.6-1.76,3.33-2.82,5.22c-1.05,1.88-2.14,3.97-2.8,6.29c-0.66,2.29-0.82,4.87-0.05,7.07
						C285.81,181.83,287.39,183.56,289.06,184.2z"/>
				</g>
				<g>
					<path class="st25" d="M334.88,181.57c1.23-1.29,2.01-3.15,2.16-5.18c0.18-2.03-0.32-4.15-1.16-6.18
						c-0.84-2.04-1.99-3.98-3.02-5.9c-1.03-1.91-1.9-3.8-2.33-5.53c0.94,1.51,2.13,3.11,3.4,4.86c1.26,1.75,2.59,3.7,3.5,5.92
						c0.92,2.19,1.37,4.74,0.86,7.01C337.83,178.84,336.46,180.74,334.88,181.57z"/>
				</g>
			</g>
		</g>
		<g>
			<path class="st4" d="M272.94,200.34l31.76-12.96h15.47l32.39,11.96C334.52,228.46,292.66,226.84,272.94,200.34z"/>
			<path class="st14" d="M349.2,198.1l-4.23-1.56c-16.28,21.99-46.73,20.89-64.16,0.59l-4.41,1.8
				C295.11,223.09,331.93,224.51,349.2,198.1z"/>
		</g>
		<g>
			<path class="st17" d="M304.7,187.38c-5.05,5.25-3.99,13.67-0.31,17.5l8.05-7.84L304.7,187.38z"/>
			<path class="st17" d="M320.17,187.38c5.05,5.25,3.99,13.67,0.31,17.5l-8.05-7.84L320.17,187.38z"/>
			<g>
				<path class="st26" d="M311.54,189.66c2.75,0.11,5.35-1.5,7.1-3.61c0.58-0.7,1.08-1.45,1.53-2.23v-2.24H304.7v3.86
					c0.37,0.52,0.76,1.02,1.21,1.48C307.39,188.45,309.4,189.57,311.54,189.66z"/>
				<path class="st10" d="M318.64,186.04c-1.76,2.12-4.35,3.73-7.1,3.61c-2.14-0.09-4.15-1.21-5.64-2.74
					c-0.44-0.46-0.84-0.96-1.21-1.48v3.88c0,4.27,3.46,7.74,7.74,7.74l0,0c4.27,0,7.74-3.46,7.74-7.74v-5.49
					C319.72,184.59,319.22,185.35,318.64,186.04z"/>
			</g>
		</g>
		<g>
			<g>
				<path class="st10" d="M309.43,138.7c-9.81,0.56-17.31,8.97-16.74,18.78l0.42,7.29c0.42,7.25,3.73,14.04,9.19,18.82
					c2.73,2.39,6.29,3.61,9.91,3.4s7.01-1.83,9.45-4.52c4.88-5.38,7.39-12.5,6.98-19.75l-0.42-7.29
					C327.65,145.63,319.24,138.13,309.43,138.7z"/>
				<path class="st27" d="M304.38,165.06c0.05,0.83-0.59,1.54-1.42,1.59c-0.83,0.05-1.54-0.59-1.59-1.42
					c-0.05-0.83,0.59-1.54,1.42-1.59C303.62,163.59,304.33,164.23,304.38,165.06z"/>
				<path class="st27" d="M317.46,164.3c0.05,0.83,0.76,1.46,1.59,1.42c0.83-0.05,1.46-0.76,1.42-1.59
					c-0.05-0.83-0.76-1.46-1.59-1.42C318.05,162.76,317.42,163.48,317.46,164.3z"/>
				<g>
					<path class="st18" d="M306.77,166.84c-2.23,0.12-5.33,1.14-7.2,2.35c1.11,0.14,2.51-0.03,3.83-0.47
						C304.72,168.29,305.96,167.61,306.77,166.84z"/>
				</g>
				<g>
					<path class="st18" d="M315.22,166.35c2.23-0.13,5.42,0.52,7.42,1.51c-1.08,0.27-2.5,0.26-3.86-0.02
						C317.42,167.57,316.11,167.02,315.22,166.35z"/>
				</g>
				<path class="st17" d="M311.42,168.06c-3.26,0.07-9.33,5.01-16.17,5.83c1.58,3.69,3.97,7.01,7.05,9.7
					c2.73,2.39,6.29,3.61,9.91,3.4c3.62-0.21,7.01-1.83,9.45-4.52c2.6-2.87,4.52-6.23,5.69-9.84
					C321.32,172.75,314.67,167.99,311.42,168.06z"/>
			</g>
			<g>
				<path class="st23" d="M328.99,150.76c-0.99-7.56-7.28-13.31-14.9-13.61h0c-3.13-0.12-6.27,0.06-9.37,0.54l0,0
					c-7.54,1.17-13.13,7.6-13.25,15.23l-0.13,8.71l19.39-1.11l19.39-1.11L328.99,150.76z"/>
				<path class="st25" d="M323.12,151.1c-0.47-4.33-2.12-8.1-4.44-10.61c1.39,2.64,2.38,6.02,2.74,9.76l0.93,9.6l1.69-0.1
					L323.12,151.1z"/>
				<path class="st25" d="M300.52,141.53c-2.01,2.76-3.22,6.69-3.19,11.05l0.06,8.7l1.69-0.1l-0.17-9.65
					C298.84,147.78,299.44,144.31,300.52,141.53z"/>
				<polygon class="st25" points="312.43,160.42 312.62,148.71 314.93,160.28 				"/>
			</g>
		</g>
		<g>
			<g>
				<path class="st18" d="M300.79,440.02c1.81-1.31,3.19-3.24,4.87-4.68l-0.69-2.88l2.84-40.16h-15.43l3.22,39.78l-5.42,8.56
					C293.44,442.44,297.76,442.21,300.79,440.02z"/>
				<path class="st28" d="M305.66,435.33c-1.68,1.44-3.06,3.37-4.87,4.68c-3.03,2.2-7.35,2.42-10.61,0.61l-0.38,0.59
					c-0.92,1.45-2.18,2.64-3.68,3.47c-2.07,1.14-3.68,2.97-4.55,5.17l-1.11,2.82h24.42l1.38-5.39c0.77-3.03,0.8-6.21,0.06-9.25
					L305.66,435.33z"/>
				<path class="st5" d="M296.92,452.68L296.92,452.68c1.52,0,2.89-0.91,3.48-2.31l2.71-6.42l-1.61,8.73H296.92z"/>
				<polygon class="st5" points="292.38,392.3 307.8,392.3 307.25,400.17 293.01,400.17 				"/>
			</g>
			<g>
				<path class="st18" d="M322.84,440.02c-1.81-1.31-3.19-3.24-4.87-4.68l0.69-2.88l-2.84-40.16h15.43l-3.22,39.78l5.42,8.56
					C330.19,442.44,325.87,442.21,322.84,440.02z"/>
				<path class="st28" d="M317.97,435.33c1.68,1.44,3.06,3.37,4.87,4.68c3.03,2.2,7.35,2.42,10.61,0.61l0.38,0.59
					c0.92,1.45,2.18,2.64,3.68,3.47c2.07,1.14,3.68,2.97,4.55,5.17l1.11,2.82h-24.42l-1.38-5.39c-0.77-3.03-0.8-6.21-0.06-9.25
					L317.97,435.33z"/>
				<path class="st5" d="M326.71,452.68L326.71,452.68c-1.52,0-2.89-0.91-3.48-2.31l-2.71-6.42l1.61,8.73H326.71z"/>
				<polygon class="st5" points="331.25,392.3 315.83,392.3 316.38,400.17 330.62,400.17 				"/>
			</g>
		</g>
	</g>
	<g>
		<g>
			<polygon class="st1" points="490.28,381.3 390.33,381.3 402.49,175.53 478.12,175.53 			"/>
			<path class="st1" d="M478.12,175.53c-16.32,41.95-61.66,38.29-75.63,0H478.12z"/>
		</g>
		<g>
			<g>
				<path class="st12" d="M379.96,288l2.94,20.98c0.46,3.31,2.18,6.32,4.78,8.41l6.13,4.91l2.03-34.3H379.96z"/>
				<path class="st29" d="M395.22,298.56l0.62-10.56h-15.88l1.42,10.08c1.73,0.58,3.52,0.97,5.34,1.15
					C389.56,299.51,392.45,299.27,395.22,298.56z"/>
			</g>
			<path class="st1" d="M402.49,175.53L402.49,175.53c-4.49,3.95-7.81,9.06-9.6,14.76l-11.32,36.01c-1.24,3.93-2.13,7.96-2.69,12.05
				l-6.97,51.61c14.8,6.75,23.64,3.05,23.64,3.05L402.49,175.53z"/>
			<path class="st5" d="M401.81,187.02l-0.63,1.22c-1.39,2.69-2.3,5.61-2.69,8.61l-5.03,38.36l-0.81,39.92
				c-0.12,6.08,0.86,12.14,2.9,17.87h0L401.81,187.02z"/>
		</g>
		<g>
			<path class="st1" d="M484.79,160.57l29.67-6.37l1.12,66.95c0.12,7.1-5.14,13.14-12.18,14h0c-5.69,0.69-11.22-2.18-13.92-7.24
				l-9.3-17.45l-2.06-34.92l0,0c2.82,1.49,5.07,3.86,6.4,6.75l5.75,12.44L484.79,160.57z"/>
			<path class="st5" d="M490.28,194.72l3.35,28.91l-1.87-5.23c-3.17-8.87-4.62-18.27-4.28-27.69l0.07-1.88L490.28,194.72z"/>
		</g>
		<g>
			<path class="st8" d="M501.49,107.01c-2.22-0.86-4.21-1.06-4.44-0.46l-23.57,61.13l8.04,3.1l23.57-61.13
				C505.32,109.05,503.71,107.87,501.49,107.01z"/>
			
				<ellipse transform="matrix(0.3598 -0.933 0.933 0.3598 147.8222 553.8832)" class="st9" cx="477.51" cy="169.23" rx="1.17" ry="4.31"/>
		</g>
		<g>
			<path class="st4" d="M449.53,163.91l-9.42,1.79l-9.42-1.79l-31.6,9.93c17.25,24.5,34.8,24.38,41.02,24.38
				c6.23,0,23.77,0.13,41.02-24.38L449.53,163.91z"/>
			<path class="st14" d="M440.1,193.76c5.67,0,21.19,0.1,36.91-21.21l-4.25-1.34c-14.11,17.55-27.55,17.47-32.66,17.47
				c-5.11,0-18.55,0.09-32.66-17.46l-4.25,1.34C418.91,193.86,434.43,193.76,440.1,193.76z"/>
		</g>
		<g>
			<polygon class="st1" points="439.83,89.69 390.46,125.76 442.8,157.38 492.16,121.31 			"/>
			<g>
				<path class="st15" d="M440.11,165.7l-9.42-1.79c0.56,9.1,4.85,13.92,9.42,13.92c4.58,0,8.86-4.81,9.42-13.92L440.11,165.7z"/>
				<g>
					<polygon class="st12" points="447.86,161.07 440.3,165.7 432.75,161.07 432.75,154.2 447.86,154.2 					"/>
					<path class="st16" d="M438.82,160.41c2.93,0.62,6.06-0.69,8.08-2.91c0.35-0.39,0.66-0.81,0.96-1.24v-2.07h-15.12v1.58
						c0.14,0.21,0.26,0.42,0.4,0.63C434.55,158.32,436.51,159.93,438.82,160.41z"/>
				</g>
				<g>
					<polygon class="st17" points="432.75,161.07 430.68,163.91 436.6,171.38 440.3,165.7 					"/>
					<polygon class="st17" points="447.86,161.07 449.92,163.91 444.01,171.38 440.3,165.7 					"/>
					<g>
						<polygon class="st14" points="440.3,165.7 437.21,170.45 439.1,173.28 440.3,173.28 441.51,173.28 443.4,170.45 						"/>
						<path class="st14" d="M439.1,173.28l-1.58,4c0.84,0.35,1.71,0.54,2.59,0.54c1,0,1.98-0.24,2.92-0.7l-1.52-3.84H439.1z"/>
					</g>
				</g>
			</g>
			<g>
				
					<ellipse transform="matrix(0.9869 -0.1615 0.1615 0.9869 -14.2804 72.8468)" class="st27" cx="441.05" cy="124.28" rx="23.69" ry="23.69"/>
				<g>
					<path class="st29" d="M425.42,138.06c0,2.98-2.41,5.39-5.39,5.39c-2.98,0-5.39-2.41-5.39-5.39c0-2.98,2.41-5.39,5.39-5.39
						C423.01,132.67,425.42,135.09,425.42,138.06z"/>
					<path class="st11" d="M423.01,138.06c0,1.65-1.34,2.98-2.98,2.98c-1.65,0-2.98-1.34-2.98-2.98c0-1.65,1.34-2.98,2.98-2.98
						C421.68,135.08,423.01,136.42,423.01,138.06z"/>
				</g>
				<g>
					<path class="st29" d="M456.69,138.06c0,2.98,2.41,5.39,5.39,5.39c2.98,0,5.39-2.41,5.39-5.39c0-2.98-2.41-5.39-5.39-5.39
						C459.1,132.67,456.69,135.09,456.69,138.06z"/>
					<path class="st11" d="M459.1,138.06c0,1.65,1.34,2.98,2.98,2.98c1.65,0,2.98-1.34,2.98-2.98c0-1.65-1.34-2.98-2.98-2.98
						C460.43,135.08,459.1,136.42,459.1,138.06z"/>
				</g>
				<path class="st12" d="M441.05,113.05c-10.66,0-19.3,1.45-19.3,12.1v7.92c0,7.88,3.16,15.43,8.78,20.96
					c2.81,2.76,6.58,4.3,10.52,4.3c3.93,0,7.71-1.55,10.52-4.3c5.62-5.53,8.78-13.08,8.78-20.96v-7.92
					C460.35,114.5,451.71,113.05,441.05,113.05z"/>
				<path class="st27" d="M433.95,134.09c0,0.9-0.73,1.63-1.63,1.63c-0.9,0-1.63-0.73-1.63-1.63s0.73-1.63,1.63-1.63
					C433.22,132.46,433.95,133.19,433.95,134.09z"/>
				<path class="st27" d="M448.16,134.09c0,0.9,0.73,1.63,1.63,1.63s1.63-0.73,1.63-1.63s-0.73-1.63-1.63-1.63
					S448.16,133.19,448.16,134.09z"/>
				<g>
					<path class="st27" d="M431.48,125.79c-2.2,0.28-3.97,1.64-4.85,3.45c3.44-0.65,6.92-1.09,10.42-1.33
						C435.73,126.39,433.67,125.51,431.48,125.79z"/>
				</g>
				<g>
					<path class="st27" d="M450.63,125.79c2.2,0.28,3.97,1.64,4.85,3.45c-3.44-0.65-6.92-1.09-10.42-1.33
						C446.37,126.39,448.43,125.51,450.63,125.79z"/>
				</g>
				<g>
					<path class="st30" d="M430.68,140.69c1.26-0.11,2.79-0.74,4.06-1.74c1.27-0.99,2.26-2.32,2.67-3.51
						c-1.1,0.63-2.3,1.54-3.49,2.46C432.74,138.83,431.57,139.78,430.68,140.69z"/>
				</g>
				<g>
					<path class="st30" d="M451.42,140.69c-1.26-0.11-2.79-0.74-4.06-1.74c-1.27-0.99-2.26-2.32-2.67-3.51
						c1.1,0.63,2.3,1.54,3.49,2.46C449.37,138.83,450.54,139.78,451.42,140.69z"/>
				</g>
				<path class="st31" d="M441.05,137.13c-3.22,0-7.36,6.02-16.76,7.88c1.48,3.34,3.59,6.41,6.24,9.03c2.81,2.76,6.58,4.3,10.52,4.3
					c3.93,0,7.71-1.55,10.52-4.3c2.66-2.61,4.76-5.68,6.24-9.03C448.41,143.15,444.28,137.13,441.05,137.13z"/>
			</g>
		</g>
		<path class="st12" d="M507.12,155.77l-2.16-12.32l-9.32-14.57c-1.19-1.86-3.48-2.68-5.57-2.01l-2.69,0.86
			c-1.42,0.46-2.57,1.53-3.11,2.92l-4.39,11.18c-0.47,1.21-0.43,2.55,0.12,3.72l1.14,2.41l1.7-3.14l0.04,0.05
			c3.05,3.21,7.08,5.31,11.46,5.97l0.24,0.04l0.6,7.44L507.12,155.77z"/>
		<g>
			<g>
				<g>
					<path class="st32" d="M431.29,427.35h-15.33l-5.42,9.58c-1.56,2.76-3.99,4.92-6.92,6.16v0c-2.68,1.13-4.9,3.04-6.45,5.43h36.21
						L431.29,427.35z"/>
					<path class="st8" d="M397.17,448.51c-0.71,1.1-1.29,2.28-1.69,3.55l-0.19,0.61h38.5l-0.41-4.17H397.17z"/>
					<polygon class="st5" points="431.29,427.35 415.96,427.35 413.04,432.51 431.8,432.51 					"/>
				</g>
				<g>
					<polygon class="st13" points="436.79,427.35 412.96,427.35 410.68,381.3 440.02,381.3 					"/>
					<polygon class="st5" points="410.97,381.3 411.29,388.63 432.8,388.63 433.21,381.3 					"/>
					<polygon class="st5" points="440.02,381.3 434.21,381.3 433.81,388.63 439.48,388.63 					"/>
					<path class="st33" d="M431.31,422.8c-0.03,0.27,0.18,0.52,0.45,0.54c0.02,0,0.03,0,0.05,0c0.25,0,0.47-0.19,0.5-0.45
						l1.51-34.26h-1L431.31,422.8z"/>
					<polygon class="st13" points="433.21,381.3 432.8,388.63 433.81,388.63 434.21,381.3 					"/>
				</g>
			</g>
			<g>
				<g>
					<path class="st32" d="M452.96,427.35h15.33l5.42,9.58c1.56,2.76,3.99,4.92,6.92,6.16v0c2.68,1.13,4.9,3.04,6.45,5.43h-36.21
						L452.96,427.35z"/>
					<path class="st8" d="M487.09,448.51c0.71,1.1,1.29,2.28,1.69,3.55l0.19,0.61h-38.5l0.41-4.17H487.09z"/>
					<polygon class="st5" points="452.96,427.35 468.29,427.35 471.22,432.51 452.45,432.51 					"/>
				</g>
				<g>
					<polygon class="st13" points="447.46,427.35 471.29,427.35 473.57,381.3 444.24,381.3 					"/>
					<polygon class="st5" points="473.29,381.3 472.97,388.63 451.45,388.63 451.05,381.3 					"/>
					<polygon class="st5" points="444.24,381.3 450.04,381.3 450.45,388.63 444.78,388.63 					"/>
					<path class="st33" d="M452.95,422.8c0.03,0.27-0.18,0.52-0.45,0.54c-0.02,0-0.03,0-0.05,0c-0.25,0-0.47-0.19-0.5-0.45
						l-1.51-34.26h1L452.95,422.8z"/>
					<polygon class="st13" points="451.05,381.3 451.45,388.63 450.45,388.63 450.04,381.3 					"/>
				</g>
			</g>
		</g>
	</g>
	<g class="st2">
		<polygon class="st34" points="564.65,101.23 515.28,137.31 567.62,168.93 616.98,132.85 		"/>
		<g class="st3">
			<polygon class="st6" points="619.58,389.61 514.39,389.61 531.47,191.46 602.5,191.46 			"/>
			<path class="st5" d="M531.08,196.06c19.37,27.64,58.42,23,71.65-1.9l-0.23-2.7h-71.02L531.08,196.06z"/>
			<path class="st5" d="M532.34,206.23l5.84,38.4l19.54,36l-2.43,6.2l10.72,9.63l0.46,8.41v2.09c0,2.23-1.47,4.19-3.61,4.8
				l-9.34,2.69c-2.96,0.85-6-1.05-6.52-4.09l-0.27-1.56H527.9c-5-7.08-1.67-12.34-1.67-12.34l-2.44-15.9l2.01-23.34L532.34,206.23z"
				/>
			<path class="st5" d="M600.89,204.44l-6.12,40.19l-19.54,36l2.43,6.2l-10.72,9.63l-0.46,8.41v2.09c0,2.23,1.47,4.19,3.61,4.8
				l9.34,2.69c2.96,0.85,6-1.05,6.52-4.09l0.27-1.56h18.83c5-7.08,1.67-12.34,1.67-12.34l3.35-17.04L607,243.74L600.89,204.44z"/>
		</g>
		<g class="st3">
			<path class="st20" d="M591.29,165.91l-2.83-9.03c-1.43-4.57-2.16-9.34-2.16-14.13v-5.31c0-9.8-7.94-17.74-17.74-17.74h-2.73
				h-2.73c-9.8,0-17.74,7.94-17.74,17.74v5.31c0,4.79-0.73,9.56-2.16,14.13l-2.83,9.03c-2.79,8.91-2.88,18.45-0.26,27.42l0,0h25.73
				h25.73l0,0C594.17,184.36,594.08,174.82,591.29,165.91z"/>
			<g>
				<path class="st21" d="M570.38,128.77c-2.7,1.81-6.12,4.16-9.71,6.23c-3.58,2.1-7.3,3.92-10.21,5.37
					c3.21-0.47,7.3-1.88,10.99-4.04C565.15,134.2,568.38,131.33,570.38,128.77z"/>
			</g>
			<g>
				<path class="st21" d="M569.8,128.11c-2.43,0.66-5.53,1.54-8.69,2.18c-3.15,0.65-6.35,1.07-8.84,1.42
					c2.48,0.45,5.84,0.43,9.09-0.24C564.6,130.81,567.69,129.51,569.8,128.11z"/>
			</g>
			<g>
				<path class="st21" d="M584.62,141.51c-2.02-1.34-4.53-3.13-6.77-5.23c-2.26-2.09-4.22-4.46-5.71-6.37
					c0.81,2.28,2.56,5.04,4.92,7.22C579.41,139.31,582.29,140.87,584.62,141.51z"/>
			</g>
			<g>
				<path class="st21" d="M583.22,133.8c-1.61-0.64-3.67-1.45-5.65-2.43c-1.99-0.97-3.88-2.1-5.37-2.99
					c1.14,1.31,2.96,2.73,5.01,3.73C579.26,133.12,581.5,133.69,583.22,133.8z"/>
			</g>
			<g>
				<path class="st21" d="M570.65,125.68c-2.11,0-4.81,0.05-7.51-0.03c-2.7-0.08-5.39-0.3-7.5-0.42c1.96,0.78,4.7,1.35,7.47,1.43
					C565.87,126.74,568.64,126.33,570.65,125.68z"/>
			</g>
			<g>
				<path class="st21" d="M544.9,188.1c-0.78-3.22-1.48-7.38-1.4-11.57c0.04-4.19,0.86-8.33,1.74-11.53
					c-0.91,1.39-1.75,3.14-2.34,5.12c-0.6,1.98-0.95,4.17-0.98,6.38c-0.03,2.21,0.25,4.41,0.79,6.41
					C543.25,184.9,544.03,186.68,544.9,188.1z"/>
			</g>
			<g>
				<path class="st21" d="M549.78,186.28c-0.51-2.07-1.13-4.7-1.49-7.39c-0.37-2.68-0.48-5.39-0.55-7.52
					c-0.6,2.04-0.85,4.88-0.46,7.65C547.66,181.81,548.65,184.47,549.78,186.28z"/>
			</g>
			<g>
				<path class="st21" d="M578.65,187.02c0.92-2.52,1.59-6,1.68-9.52c0.11-3.52-0.36-7.03-1.14-9.6c-0.06,2.69-0.03,6.13-0.14,9.56
					C578.97,180.9,578.74,184.33,578.65,187.02z"/>
			</g>
			<g>
				<path class="st21" d="M584.85,187.72c1.36-3.19,2.19-7.82,1.81-12.41c-0.34-4.59-1.86-9.04-3.7-11.98
					c0.82,3.38,1.73,7.71,2.05,12.11C585.37,179.84,585.14,184.25,584.85,187.72z"/>
			</g>
		</g>
		<g class="st3">
			<g>
				<path class="st10" d="M553.63,439.45c1.89-1.37,3.33-3.39,5.09-4.89l-0.72-3.01l2.97-41.95h-16.11l3.36,41.55l-5.66,8.94
					C545.96,441.98,550.47,441.75,553.63,439.45z"/>
				<path class="st14" d="M558.72,434.56c-1.75,1.51-3.19,3.52-5.09,4.89c-3.17,2.29-7.67,2.53-11.09,0.64l-0.39,0.62
					c-0.96,1.51-2.28,2.76-3.85,3.62c-2.16,1.19-3.84,3.1-4.75,5.4l-1.16,2.94h25.5l1.44-5.63c0.81-3.17,0.83-6.49,0.07-9.67
					L558.72,434.56z"/>
				<path class="st35" d="M549.59,452.68L549.59,452.68c1.59,0,3.02-0.95,3.64-2.41l2.83-6.7l-1.68,9.12H549.59z"/>
				<polygon class="st5" points="544.85,389.61 560.96,389.61 560.38,397.83 545.51,397.83 				"/>
			</g>
			<g>
				<path class="st18" d="M576.67,439.45c-1.89-1.37-3.33-3.39-5.09-4.89l0.72-3.01l-2.97-41.95h16.11l-3.36,41.55l5.66,8.94
					C584.34,441.98,579.84,441.75,576.67,439.45z"/>
				<path class="st14" d="M571.59,434.56c1.75,1.51,3.19,3.52,5.09,4.89c3.17,2.29,7.67,2.53,11.09,0.64l0.39,0.62
					c0.96,1.51,2.28,2.76,3.85,3.62c2.16,1.19,3.84,3.1,4.75,5.4l1.16,2.94h-25.5l-1.44-5.63c-0.81-3.17-0.83-6.49-0.07-9.67
					L571.59,434.56z"/>
				<path class="st35" d="M580.71,452.68L580.71,452.68c-1.59,0-3.02-0.95-3.64-2.41l-2.83-6.7l1.68,9.12H580.71z"/>
				<polygon class="st5" points="585.46,389.61 569.34,389.61 569.93,397.83 584.79,397.83 				"/>
			</g>
		</g>
		<path class="st36" d="M601.99,296.46h-70.17c-1.35,0-2.44,1.88-2.44,4.2c0,2.32,1.09,4.2,2.44,4.2h70.17
			c1.35,0,2.44-1.88,2.44-4.2C604.42,298.34,603.33,296.46,601.99,296.46z"/>
		<g class="st3">
			<path class="st6" d="M531.47,191.46L531.47,191.46c-4.49,4-7.51,9.38-8.58,15.29l-7.34,40.63c-0.75,4.14,0.01,8.4,2.12,12.03
				l20.06,34.38l20-13.17l-23-34L531.47,191.46z"/>
			<g>
				<path class="st10" d="M543.58,289.95l2.57,3.02l2.29,13.42c0.32,1.9,2.14,3.18,4.04,2.83l11.79-2.13
					c1.36-0.24,2.07-1.75,1.4-2.95l-7.93-14.34l-4.88-5.95L543.58,289.95z"/>
				<polygon class="st10" points="557.73,289.79 566.02,296.46 561.42,296.46 				"/>
				<polygon class="st18" points="552.86,283.84 543.58,289.95 546.15,292.96 555.3,286.83 				"/>
			</g>
		</g>
		<g class="st3">
			<path class="st6" d="M601.54,191.46L601.54,191.46c4.49,4,7.51,9.38,8.58,15.29l7.35,40.63c0.75,4.14-0.01,8.4-2.12,12.03
				l-20.06,34.38l-20-13.17l23-34L601.54,191.46z"/>
			<g>
				<path class="st10" d="M589.43,289.95l-2.57,3.02l-2.29,13.42c-0.32,1.9-2.14,3.18-4.04,2.83l-11.79-2.13
					c-1.36-0.24-2.07-1.75-1.4-2.95l7.93-14.34l4.88-5.95L589.43,289.95z"/>
				<polygon class="st10" points="575.28,289.79 566.98,296.46 571.59,296.46 				"/>
				<polygon class="st18" points="580.15,283.84 589.43,289.95 586.86,292.96 577.7,286.83 				"/>
			</g>
		</g>
		<g class="st3">
			<path class="st4" d="M524.55,189.09l33.17-13.54h16.16l33.84,12.49C588.87,218.47,545.14,216.78,524.55,189.09z"/>
			<path class="st14" d="M604.2,186.75l-4.41-1.63c-17,22.97-48.82,21.82-67.01,0.61l-4.6,1.88
				C547.71,212.85,586.17,214.34,604.2,186.75z"/>
		</g>
		<g class="st3">
			<path class="st17" d="M557.72,175.56c-5.27,5.48-4.17,14.28-0.33,18.28l8.41-8.18L557.72,175.56z"/>
			<path class="st17" d="M573.88,175.56c5.27,5.48,4.17,14.28,0.33,18.28l-8.41-8.18L573.88,175.56z"/>
			<g>
				<path class="st5" d="M566.35,175.74c3.09-0.17,5.79-2.3,7.45-4.91c0.03-0.04,0.05-0.09,0.08-0.13v-1.21h-16.16v1.22
					c0.23,0.33,0.46,0.65,0.72,0.97C560.36,174.08,563.28,175.9,566.35,175.74z"/>
				<path class="st10" d="M573.81,170.83c-1.66,2.61-4.37,4.74-7.45,4.91c-3.08,0.17-5.99-1.66-7.92-4.06
					c-0.25-0.31-0.49-0.64-0.72-0.97v2.81v4.05c0,4.46,3.62,8.08,8.08,8.08c4.46,0,8.08-3.62,8.08-8.08v-5.74v-1.13
					C573.86,170.74,573.83,170.79,573.81,170.83z"/>
			</g>
		</g>
		<g class="st3">
			<g>
				<path class="st18" d="M550.6,152.89c0,2.9-2.35,5.25-5.25,5.25c-2.9,0-5.25-2.35-5.25-5.25c0-2.9,2.35-5.25,5.25-5.25
					C548.25,147.64,550.6,149.99,550.6,152.89z"/>
				<path class="st19" d="M548.25,152.89c0,1.6-1.3,2.91-2.91,2.91s-2.91-1.3-2.91-2.91c0-1.6,1.3-2.91,2.91-2.91
					S548.25,151.28,548.25,152.89z"/>
			</g>
			<g>
				<path class="st18" d="M581.05,152.89c0,2.9,2.35,5.25,5.25,5.25c2.9,0,5.25-2.35,5.25-5.25c0-2.9-2.35-5.25-5.25-5.25
					C583.4,147.64,581.05,149.99,581.05,152.89z"/>
				<path class="st19" d="M583.39,152.89c0,1.6,1.3,2.91,2.91,2.91c1.6,0,2.91-1.3,2.91-2.91c0-1.6-1.3-2.91-2.91-2.91
					C584.69,149.98,583.39,151.28,583.39,152.89z"/>
			</g>
			<path class="st10" d="M570.09,131.05c-4.04,7.3-14.37,14.94-23.06,16.98c0,7.67,3.08,15.03,8.55,20.41
				c2.73,2.69,6.41,4.19,10.24,4.19c3.83,0,7.51-1.5,10.24-4.19c5.47-5.38,8.55-12.73,8.55-20.41
				C578.17,145.24,571.2,137.99,570.09,131.05z"/>
			<path class="st37" d="M547.11,157.82c-0.24,0.08-0.48,0.16-0.73,0.21c0.02,0.12,0.03,0.25,0.03,0.38c0,0.8-0.34,1.33-0.56,1.33
				c-0.22,0-0.56-0.53-0.56-1.33c0-0.09,0.01-0.19,0.02-0.28c0.04-0.36,0.14-0.68,0.3-0.88c0.13-0.16,0.1-0.4-0.07-0.53
				c-0.16-0.13-0.4-0.1-0.53,0.07c-0.25,0.32-0.4,0.77-0.45,1.28c-0.01,0.11-0.02,0.22-0.02,0.34c0,1.19,0.56,2.08,1.31,2.08
				s1.31-0.89,1.31-2.08C547.17,158.21,547.15,158.01,547.11,157.82z"/>
			<path class="st37" d="M584.53,157.82c0.24,0.08,0.48,0.16,0.73,0.21c-0.02,0.12-0.03,0.25-0.03,0.38c0,0.8,0.34,1.33,0.56,1.33
				c0.22,0,0.56-0.53,0.56-1.33c0-0.09-0.01-0.19-0.02-0.28c-0.04-0.36-0.14-0.68-0.3-0.88c-0.13-0.16-0.1-0.4,0.07-0.53
				c0.16-0.13,0.4-0.1,0.53,0.07c0.25,0.32,0.4,0.77,0.45,1.28c0.01,0.11,0.02,0.22,0.02,0.34c0,1.19-0.56,2.08-1.31,2.08
				c-0.75,0-1.31-0.89-1.31-2.08C584.48,158.21,584.5,158.01,584.53,157.82z"/>
			<circle class="st27" cx="557.31" cy="149.01" r="1.59"/>
			<path class="st27" d="M572.74,149.01c0,0.88,0.71,1.59,1.59,1.59c0.88,0,1.59-0.71,1.59-1.59c0-0.88-0.71-1.59-1.59-1.59
				C573.45,147.42,572.74,148.14,572.74,149.01z"/>
			<g>
				<path class="st20" d="M557.01,142.69c-2.09,0.09-3.9,1.17-5.01,2.76l10.24-0.43C560.99,143.53,559.1,142.6,557.01,142.69z"/>
			</g>
			<g>
				<path class="st20" d="M574.63,142.69c2.09,0.09,3.9,1.17,5.01,2.76l-10.23-0.43C570.65,143.53,572.54,142.6,574.63,142.69z"/>
			</g>
			<g>
				<path class="st18" d="M560.58,151.2c-0.96-0.36-2.26-0.49-3.53-0.37c-1.27,0.12-2.52,0.5-3.4,1.03
					C555.68,152.18,558.65,151.9,560.58,151.2z"/>
			</g>
			<g>
				<path class="st18" d="M571.06,151.2c0.96-0.36,2.26-0.49,3.53-0.37c1.27,0.12,2.52,0.5,3.4,1.03
					C575.96,152.18,572.99,151.9,571.06,151.2z"/>
			</g>
			<path class="st14" d="M548.96,158.35c1.45,3.76,3.69,7.21,6.62,10.09c2.73,2.69,6.41,4.19,10.24,4.19c3.83,0,7.51-1.5,10.24-4.19
				c2.93-2.88,5.16-6.32,6.62-10.08c-6.67-1.34-13.36-6.02-16.88-6.02C562.29,152.34,555.62,156.99,548.96,158.35z"/>
		</g>
	</g>
</g>
</svg>
